<svg width="100" height="100" viewBox="0 0 100 100" fill="none" xmlns="http://www.w3.org/2000/svg">
<path fill-rule="evenodd" clip-rule="evenodd" d="M96.8729 50.7021C96.7705 50.9764 96.6121 51.2172 96.4143 51.4145C96.217 51.6122 95.9762 51.7706 95.7019 51.873C95.6187 51.9043 95.5332 51.9301 95.446 51.9501C85.8866 54.3497 76.2091 60.3694 68.2892 68.2892C60.3694 76.2091 54.3497 85.8866 51.9501 95.446C51.9301 95.5332 51.9043 95.6187 51.873 95.7019C51.7706 95.9762 51.6122 96.217 51.4145 96.4143C51.2172 96.6121 50.9764 96.7705 50.7021 96.8729C50.4807 96.9561 50.2433 97.0007 50 97.0005C49.7567 97.0007 49.5193 96.9561 49.2979 96.8729C49.0236 96.7705 48.7828 96.6121 48.5855 96.4143C48.3878 96.217 48.2294 95.9762 48.127 95.7019C48.0957 95.6187 48.0699 95.5332 48.0499 95.446C45.6503 85.8866 39.6306 76.2091 31.7108 68.2892C23.791 60.3694 14.1134 54.3497 4.55408 51.9501C4.46665 51.93 4.381 51.9042 4.29761 51.8728C4.02349 51.7704 3.78283 51.6121 3.58557 51.4144C3.38795 51.2172 3.22962 50.9765 3.1272 50.7024C3.04394 50.481 2.99934 50.2435 2.99953 50C2.99934 49.7565 3.04394 49.519 3.1272 49.2976C3.22962 49.0235 3.38795 48.7828 3.58557 48.5856C3.78283 48.3879 4.02349 48.2296 4.29761 48.1272C4.381 48.0958 4.46668 48.07 4.5541 48.0499C14.1135 45.6503 23.791 39.6306 31.7108 31.7108C39.6306 23.791 45.6503 14.1135 48.0499 4.5541C48.07 4.46668 48.0958 4.381 48.1272 4.29761C48.2296 4.02349 48.3879 3.78283 48.5856 3.58557C48.7828 3.38795 49.0235 3.22962 49.2976 3.1272C49.519 3.04394 49.7565 2.99934 50 2.99953C50.2435 2.99934 50.481 3.04394 50.7024 3.1272C50.9765 3.22962 51.2172 3.38795 51.4144 3.58557C51.6121 3.78283 51.7704 4.02349 51.8728 4.29761C51.9042 4.381 51.93 4.46665 51.9501 4.55408C54.3497 14.1134 60.3694 23.791 68.2892 31.7108C76.2091 39.6306 85.8866 45.6503 95.446 48.0499C95.5332 48.0699 95.6187 48.0957 95.7019 48.127C95.9762 48.2294 96.217 48.3878 96.4143 48.5855C96.6121 48.7828 96.7705 49.0236 96.8729 49.2979C96.9561 49.5193 97.0007 49.7567 97.0005 50C97.0007 50.2433 96.9561 50.4807 96.8729 50.7021ZM50 11.5296C53.2495 19.839 58.7561 27.8346 65.4608 34.5392C72.1654 41.2439 80.1609 46.7505 88.4704 50C80.1609 53.2495 72.1654 58.7561 65.4608 65.4608C58.7561 72.1654 53.2495 80.1609 50 88.4704C46.7505 80.1609 41.2439 72.1654 34.5392 65.4608C27.8346 58.7561 19.839 53.2495 11.5296 50C19.839 46.7505 27.8346 41.2439 34.5392 34.5392C41.2439 27.8346 46.7505 19.839 50 11.5296Z" fill="currentColor"/>
<path fill-rule="evenodd" clip-rule="evenodd" d="M65.5392 65.5392C70.6231 60.4554 77.3094 56.8292 88.7927 51.8362L89.7918 49.1113C89.6031 48.7304 89.2926 48.4074 88.8858 48.2068C88.8552 48.1917 88.8241 48.1773 88.7927 48.1638C77.3094 43.1708 70.6231 39.5446 65.5392 34.4608C60.4554 29.377 56.8292 22.6907 51.8363 11.2075C51.8356 11.2058 51.8349 11.2042 51.8341 11.2026C51.8111 11.1496 51.7861 11.0981 51.7592 11.0482C51.6655 10.8746 51.549 10.7198 51.415 10.5859C51.2635 10.4341 51.0852 10.3047 50.8831 10.2055C50.8478 10.1881 50.8119 10.1718 50.7756 10.1565C50.5223 10.0499 50.2591 9.99937 50 9.9995C49.7409 9.99937 49.4777 10.0499 49.2244 10.1565C49.1881 10.1718 49.1522 10.1881 49.1169 10.2055C48.7088 10.4059 48.3974 10.7295 48.2082 11.1113C48.1926 11.143 48.1777 11.175 48.1637 11.2075C43.1708 22.6907 39.5446 29.377 34.4608 34.4608C29.377 39.5446 22.6907 43.1708 11.2075 48.1637C10.9776 48.2629 10.766 48.405 10.5859 48.585C10.4341 48.7365 10.3047 48.9148 10.2055 49.1169C10.1881 49.1522 10.1718 49.1881 10.1565 49.2244C10.0499 49.4777 9.99937 49.7409 9.9995 50C9.99937 50.2591 10.0499 50.5223 10.1565 50.7756C10.2561 51.0124 10.4011 51.2303 10.5859 51.415C10.7353 51.5644 10.9107 51.6922 11.1092 51.7907C11.1398 51.8059 11.1709 51.8204 11.2026 51.8341C11.2042 51.8349 11.2058 51.8356 11.2075 51.8363C22.6907 56.8292 29.377 60.4554 34.4608 65.5392C39.5446 70.6231 43.1708 77.3094 48.1638 88.7927L48.1659 88.7975C48.1934 88.8608 48.2238 88.9219 48.2569 88.9809C48.3479 89.1431 48.4591 89.2884 48.5858 89.415C48.7711 89.6001 48.9897 89.7452 49.2272 89.8447C49.4797 89.9505 49.7419 90.0006 50 90.0005C50.2581 90.0006 50.5204 89.9505 50.7728 89.8447L50.7975 89.8341C50.8608 89.8066 50.9219 89.7762 50.9809 89.7431C51.1427 89.6523 51.2878 89.5414 51.4142 89.415C51.5945 89.2347 51.7369 89.0229 51.8362 88.7927C56.8292 77.3094 60.4554 70.6231 65.5392 65.5392ZM16.9326 50C26.1179 54.1707 32.3336 57.7552 37.2892 62.7108C42.2448 67.6664 45.8293 73.8821 50 83.0674C54.1707 73.8821 57.7552 67.6664 62.7108 62.7108C67.6664 57.7552 73.8821 54.1707 83.0674 50C73.8821 45.8293 67.6664 42.2448 62.7108 37.2892C57.7552 32.3336 54.1707 26.1179 50 16.9326C45.8293 26.1179 42.2448 32.3336 37.2892 37.2892C32.3336 42.2448 26.1179 45.8293 16.9326 50Z" fill="currentColor"/>
</svg>
